# xmcd
# 
# Track frame offsets:
#     150
#     13466
#     24722
#     37216
#     51208
#     61547
#     72344
#     86580
#     100278
#     111403
#     123185
#     136393
#     148252
#     164410
#     181247
#     193928
#     213059
#     231783
#     246734
#     258723
#     274297
#     285868
#     294487
#     311754
#     324917
#     342207
# 
# Disc length: 4749
# 
# Revision: 2
# Processed by: cddbd v1.5.1PL2 Copyright (c) Steve Scherf et al.
# Submitted via: BonkEnc v1.0beta2
# 
DISCID=99128b1a
DTITLE=Vanity Fare - The Best Of
DYEAR=1900
DGENRE=Oldies
TTITLE0=Hitchin' A Ride
TTITLE1=I Live For The Sun
TTITLE2=Early In The Morning
TTITLE3=Come Tomorrow
TTITLE4=Ceroliona's Comin' Home
TTITLE5=You Made me Love You
TTITLE6=I'm In Love With The World
TTITLE7=Rock And Roll Is Back
TTITLE8=Take It, Shake It, Break My Heart
TTITLE9=Highway Of Dream
TTITLE10=Making For The Sun
TTITLE11=Down Home
TTITLE12=Southern Woman
TTITLE13=On Your Own
TTITLE14=Man Child
TTITLE15=Megowd (Something Tell Me)
TTITLE16=Nowhere To Go
TTITLE17=Rock 'n' Roll Band
TTITLE18=I Hear Trumpets Blow
TTITLE19=On The Other Side Of Life
TTITLE20=Waithing For The Nightfall
TTITLE21=Betty Carter
TTITLE22=Our Own Way Of Living
TTITLE23=Summer Morning
TTITLE24=Better By far
TTITLE25=Stand
EXTD=^^HEP^^
EXTT0=
EXTT1=
EXTT2=
EXTT3=
EXTT4=
EXTT5=
EXTT6=
EXTT7=
EXTT8=
EXTT9=
EXTT10=
EXTT11=
EXTT12=
EXTT13=
EXTT14=
EXTT15=
EXTT16=
EXTT17=
EXTT18=
EXTT19=
EXTT20=
EXTT21=
EXTT22=
EXTT23=
EXTT24=
EXTT25=^^HEP^^
PLAYORDER=
